<?xml version='1.0' encoding='UTF-8'?>
<svg xmlns="http://www.w3.org/2000/svg" width="512" height="512" fill="none">
  <path fill="#333333" d="M256 512a256 256 0 0 0 256-255.5v-.5l-256-32L0 256a256 256 0 0 0 256 256Z"/>
  <path fill="#444444" d="M512 255.5v.5H0a256 256 0 0 1 512-.5Z"/>
  <path fill="#EEE" d="m352 328-96-12-96 12V184h192v144Z"/>
  <path fill="#444444" d="M256 316a48 48 0 1 0 0-96 48 48 0 0 0 0 96Z"/>
  <path fill="#333333" d="M256 292a24 24 0 1 0 0-48 24 24 0 0 0 0 48Z"/>
  <path fill="#EEE" d="M222 234a48 48 0 0 1 68 0l-34 34-34-34Z"/>
  <path fill="#5b5b5b" d="M220 208h72l-36 36-36-36Z"/>
  <path fill="#c6c6c6" d="M244 232h24v72h-24v-72Z"/>
  <path fill="#5b5b5b" d="M295 296h-78l-57 32h192l-57-32Z"/>
</svg>
